<svg width="45" height="45" viewBox="0 0 45 45" fill="none" xmlns="http://www.w3.org/2000/svg">
<circle cx="22.5" cy="22.5" r="22.5" fill="#0666EB"/>
<g clip-path="url(#clip0_631_2010)">
<path d="M28 21.3333H26.95C26.6382 20.1258 25.994 19.03 25.0905 18.1703C24.1871 17.3107 23.0606 16.7217 21.8391 16.4702C20.6176 16.2188 19.3501 16.315 18.1806 16.748C17.011 17.181 15.9864 17.9333 15.2231 18.9195C14.4597 19.9057 13.9883 21.0862 13.8624 22.327C13.7365 23.5677 13.9612 24.8189 14.5108 25.9383C15.0605 27.0578 15.9131 28.0006 16.9718 28.6596C18.0305 29.3187 19.2529 29.6676 20.5 29.6667H28C29.1051 29.6667 30.1649 29.2277 30.9463 28.4463C31.7277 27.6649 32.1667 26.6051 32.1667 25.5C32.1667 24.3949 31.7277 23.3351 30.9463 22.5537C30.1649 21.7723 29.1051 21.3333 28 21.3333Z" stroke="white" stroke-width="2" stroke-linecap="round" stroke-linejoin="round"/>
</g>
<defs>
<clipPath id="clip0_631_2010">
<rect width="20" height="20" fill="white" transform="translate(13 13)"/>
</clipPath>
</defs>
</svg>
