<svg width="25" height="26" viewBox="0 0 25 26" fill="none" xmlns="http://www.w3.org/2000/svg">
<g clip-path="url(#clip0_530_1724)">
<path d="M17.9348 1.74033C16.2914 0.945703 14.4478 0.5 12.5 0.5C10.5522 0.5 8.70859 0.945703 7.06523 1.74033L5.97827 13L7.06523 24.2597C8.70859 25.0543 10.5522 25.5 12.5 25.5C14.4478 25.5 16.2914 25.0543 17.9348 24.2597L19.0217 13L17.9348 1.74033Z" fill="#D80027"/>
<path d="M12.4999 8.65222L13.579 11.9735H17.0716L14.2462 14.0264L15.3253 17.3478L12.4999 15.295L9.67445 17.3478L10.7538 14.0264L7.92841 11.9735H11.4207L12.4999 8.65222Z" fill="#FFDA44"/>
<path d="M7.06523 1.74078C2.88408 3.76256 0 8.04425 0 13C0 17.9558 2.88408 22.2375 7.06523 24.2592V1.74078Z" fill="#496E2D"/>
<path d="M17.9348 1.74078V24.2592C22.1159 22.2375 25 17.9557 25 13C25 8.0443 22.1159 3.76256 17.9348 1.74078Z" fill="#FFDA44"/>
</g>
<defs>
<clipPath id="clip0_530_1724">
<rect width="25" height="25" fill="white" transform="translate(0 0.5)"/>
</clipPath>
</defs>
</svg>
