<svg width="50" height="31" viewBox="0 0 50 31" fill="none" xmlns="http://www.w3.org/2000/svg">
<path d="M31.7609 27.7225H18.2373V3.61951H31.7609V27.7225Z" fill="#FF5F00"/>
<path d="M19.1037 15.671C19.1037 10.7816 21.4121 6.42628 25.0068 3.61953C22.3781 1.56709 19.0605 0.342062 15.455 0.342062C6.91921 0.342062 0 7.20497 0 15.671C0 24.1371 6.91921 31 15.455 31C19.0605 31 22.3781 29.775 25.0068 27.7225C21.4121 24.9158 19.1037 20.5604 19.1037 15.671Z" fill="#EB001B"/>
<path d="M50 15.671C50 24.1371 43.0808 31 34.545 31C30.9395 31 27.6219 29.775 24.9922 27.7225C28.5879 24.9158 30.8963 20.5604 30.8963 15.671C30.8963 10.7816 28.5879 6.42628 24.9922 3.61953C27.6219 1.56709 30.9395 0.342062 34.545 0.342062C43.0808 0.342062 50 7.20497 50 15.671Z" fill="#F79E1B"/>
</svg>
