<svg width="40" height="40" viewBox="0 0 40 40" fill="none" xmlns="http://www.w3.org/2000/svg">
<rect width="40" height="40" rx="20" fill="#0666EB" fill-opacity="0.1"/>
<g clip-path="url(#clip0_707_6052)">
<path d="M21.4416 27.5C21.2951 27.7525 21.0848 27.9622 20.8318 28.1079C20.5788 28.2536 20.2919 28.3303 20 28.3303C19.708 28.3303 19.4211 28.2536 19.1681 28.1079C18.9151 27.9622 18.7048 27.7525 18.5583 27.5M28.3333 24.1666H11.6666C12.3297 24.1666 12.9656 23.9032 13.4344 23.4344C13.9032 22.9656 14.1666 22.3297 14.1666 21.6666V17.5C14.1666 15.9529 14.7812 14.4691 15.8752 13.3752C16.9691 12.2812 18.4529 11.6666 20 11.6666C21.5471 11.6666 23.0308 12.2812 24.1247 13.3752C25.2187 14.4691 25.8333 15.9529 25.8333 17.5V21.6666C25.8333 22.3297 26.0967 22.9656 26.5655 23.4344C27.0344 23.9032 27.6703 24.1666 28.3333 24.1666Z" stroke="#0666EB" stroke-width="2" stroke-linecap="round" stroke-linejoin="round"/>
</g>
<defs>
<clipPath id="clip0_707_6052">
<rect width="20" height="20" fill="white" transform="translate(10 10)"/>
</clipPath>
</defs>
</svg>
