<svg width="69" height="26" viewBox="0 0 69 26" fill="none" xmlns="http://www.w3.org/2000/svg">
<path d="M4.59659 22.1609C8.36999 22.1609 9.12467 19.6057 9.12467 17.428V10.6916C9.12467 8.4849 8.28291 5.72648 4.59659 5.72648C0.939293 5.72648 0.0975342 8.4849 0.0975342 10.6916V17.428C0.0975342 19.6057 0.852214 22.1609 4.59659 22.1609ZM4.59659 18.8508C4.21925 18.8508 4.04509 18.5604 4.04509 18.0958V9.82056C4.04509 9.35598 4.21925 9.03658 4.59659 9.03658C5.00296 9.03658 5.14809 9.35598 5.14809 9.82056V18.0958C5.14809 18.5604 5.00296 18.8508 4.59659 18.8508Z" fill="white"/>
<path d="M21.4556 5.72648C20.3816 5.72648 19.3076 6.27816 19.0754 7.41057H18.8722C18.4949 6.22009 17.6822 5.72648 16.405 5.72648C15.302 5.72648 14.4893 6.27816 14.2571 7.41057H14.0539L13.8507 6.01684H10.1063V21.8995H14.0539V9.9367C14.0539 9.44309 14.2281 9.15273 14.6344 9.15273C15.0118 9.15273 15.1569 9.41405 15.1569 9.9367V21.8995H19.1335V9.90767C19.1335 9.41405 19.2786 9.15273 19.685 9.15273C20.0913 9.15273 20.2074 9.41405 20.2074 9.9367V21.8995H24.184V9.44309C24.184 6.74274 23.3132 5.72648 21.4556 5.72648Z" fill="white"/>
<path d="M31.5701 5.72648C30.4671 5.72648 29.6543 6.27816 29.4221 7.41057H29.2189L29.0158 6.01684H25.2714V21.8995H29.2189V9.9367C29.2189 9.44309 29.3931 9.15273 29.7995 9.15273C30.1768 9.15273 30.3219 9.41405 30.3219 9.9367V21.8995H34.2985V9.44309C34.2985 6.74274 33.4277 5.72648 31.5701 5.72648Z" fill="white"/>
<path d="M39.2817 4.36179V0.5H35.3342V4.36179H39.2817ZM39.2817 21.8995V6.01684H35.3342V21.8995H39.2817Z" fill="white"/>
<path d="M46.7655 5.72648C45.7205 5.72648 44.8207 6.10395 44.5305 7.41057H44.3273L44.1241 6.01684H40.3797V25.2387H44.3273V20.5058H44.5305C44.7627 21.7834 45.8366 22.1609 46.6494 22.1609C48.3619 22.1609 49.4069 21.3769 49.4069 18.4152V9.50116C49.4069 6.71371 48.478 5.72648 46.7655 5.72648ZM45.4593 17.9216C45.4593 18.4443 45.3142 18.7636 44.9078 18.7636C44.5014 18.7636 44.3273 18.4152 44.3273 17.9797V9.9367C44.3273 9.47212 44.5014 9.15273 44.9078 9.15273C45.3142 9.15273 45.4593 9.47213 45.4593 9.96574V17.9216Z" fill="white"/>
<path d="M54.8835 5.72648C52.1841 5.72648 50.4135 7.38153 50.4135 9.99477C50.4135 10.6626 50.5006 11.3885 50.6457 12.1434L54.1869 11.7369C54.0418 11.0691 53.9256 10.6626 53.9256 9.73345C53.9256 9.29791 54.0708 8.94948 54.4771 8.94948C54.8835 8.94948 54.9996 9.29791 54.9996 9.79152V10.7207C54.9996 13.7985 50.0071 13.6243 50.0071 18.6185C50.0071 20.7091 50.994 22.1609 52.8807 22.1609C53.9256 22.1609 54.6513 21.7544 54.9996 20.5058H55.1738L55.464 21.8995H58.9762V10.6916C58.9762 9.15273 58.9762 5.72648 54.8835 5.72648ZM54.4481 19.1411C54.0418 19.1411 53.8966 18.8798 53.8966 18.1829C53.8966 16.0052 54.361 15.2503 54.8545 14.4373C54.9125 14.3792 54.9416 14.2921 54.9996 14.234V18.212C54.9996 18.7636 54.8835 19.1411 54.4481 19.1411Z" fill="white"/>
<path d="M64.2977 16.2085H64.1236L63.4269 6.01684H59.2182L61.7144 20.9994H63.3108C63.1367 22.0157 62.8755 22.306 62.353 22.306C62.0627 22.306 61.7725 22.1318 61.5403 21.6672L59.1021 23.5836C59.5665 24.5999 60.7856 25.5 62.411 25.5C65.1975 25.5 66.0393 23.4675 66.4457 20.9994L69 6.01684H64.9363L64.2977 16.2085Z" fill="white"/>
</svg>
