<svg width="76" height="20" viewBox="0 0 76 20" fill="none" xmlns="http://www.w3.org/2000/svg">
<path d="M2.44846 2.89157H6.30388L6.40027 4.91566C6.6091 4.27309 6.99465 3.73494 7.55689 3.3012C8.11914 2.86747 8.74565 2.6506 9.43641 2.6506C9.80589 2.6506 10.1432 2.72289 10.4485 2.86747C10.7697 3.01205 11.0348 3.20482 11.2436 3.44578C11.4525 3.68675 11.5971 3.9759 11.6774 4.31325C11.7738 4.63454 11.7979 4.97992 11.7497 5.3494L10.7376 12.4819C10.6894 12.8514 10.5689 13.2048 10.3762 13.5422C10.1995 13.8635 9.97456 14.1446 9.70147 14.3855C9.42838 14.6265 9.11513 14.8193 8.76171 14.9639C8.4083 15.1084 8.04685 15.1807 7.67738 15.1807C7.06693 15.1807 6.54485 15.004 6.11111 14.6506C5.67738 14.2972 5.42035 13.8394 5.34003 13.2771L4.61713 18.3133H0.279785L2.44846 2.89157ZM6.11111 11.0843C6.25569 11.0843 6.37617 11.0361 6.47256 10.9398C6.58501 10.8434 6.64926 10.7309 6.66533 10.6024L7.14725 7.22892C7.17938 7.1004 7.15529 6.98795 7.07497 6.89157C6.99464 6.79518 6.88219 6.74699 6.73762 6.74699C6.59304 6.74699 6.47256 6.79518 6.37617 6.89157C6.27979 6.98795 6.21553 7.1004 6.1834 7.22892L5.70147 10.6024C5.68541 10.7309 5.7095 10.8434 5.77376 10.9398C5.85408 11.0361 5.96653 11.0843 6.11111 11.0843Z" fill="white"/>
<path d="M14.0313 15.1807C13.6618 15.1807 13.3164 15.1084 12.9951 14.9639C12.6899 14.8193 12.4329 14.6265 12.2241 14.3855C12.0152 14.1446 11.8626 13.8635 11.7662 13.5422C11.6698 13.2048 11.6457 12.8514 11.6939 12.4819L12.706 5.3494C12.7542 4.97992 12.8747 4.63454 13.0674 4.31325C13.2602 3.9759 13.4931 3.68675 13.7662 3.44578C14.0393 3.20482 14.3526 3.01205 14.706 2.86747C15.0594 2.72289 15.4208 2.6506 15.7903 2.6506C16.4008 2.6506 16.9148 2.82731 17.3325 3.18072C17.7662 3.53414 18.0313 3.99197 18.1277 4.55422L18.3445 2.89157H22.6819L20.9951 14.9398H17.1397L17.0433 12.9157C16.8345 13.5582 16.449 14.0964 15.8867 14.5301C15.3405 14.9639 14.7221 15.1807 14.0313 15.1807ZM16.706 11.0843C16.8506 11.0843 16.971 11.0361 17.0674 10.9398C17.1799 10.8434 17.2441 10.7309 17.2602 10.6024L17.7421 7.22892C17.7743 7.1004 17.7502 6.98795 17.6698 6.89157C17.5895 6.79518 17.4771 6.74699 17.3325 6.74699C17.1879 6.74699 17.0674 6.79518 16.9711 6.89157C16.8747 6.98795 16.8104 7.1004 16.7783 7.22892L16.2964 10.6024C16.2803 10.7309 16.3044 10.8434 16.3686 10.9398C16.449 11.0361 16.5614 11.0843 16.706 11.0843Z" fill="white"/>
<path d="M30.6503 15.6627C30.3611 16.996 29.7426 18.0482 28.7948 18.8193C27.8631 19.6064 26.6663 20 25.2045 20C24.7226 20 24.2808 19.9839 23.8792 19.9518C23.4776 19.9197 23.1242 19.8795 22.8189 19.8313C22.4655 19.7831 22.1523 19.7269 21.8792 19.6626L22.4575 15.5663C22.6824 15.6305 22.9314 15.6867 23.2045 15.7349C23.4294 15.7831 23.6784 15.8233 23.9515 15.8554C24.2406 15.8875 24.5378 15.9036 24.843 15.9036C25.1483 15.9036 25.3973 15.8635 25.59 15.7831C25.7828 15.7189 25.9354 15.6305 26.0479 15.5181C26.1603 15.4217 26.2406 15.3173 26.2888 15.2048C26.3531 15.0924 26.3932 15.004 26.4093 14.9398H24.4816C23.9033 14.9398 23.4454 14.7631 23.1081 14.4096C22.7868 14.0562 22.6422 13.5904 22.6744 13.012L23.2768 2.89157H27.3732L26.7467 13.5904L29.3009 2.89157H33.3973L30.6503 15.6627Z" fill="white"/>
<path d="M38.6966 7.22892C38.7287 7.1004 38.7046 6.98795 38.6243 6.89157C38.544 6.79518 38.4315 6.74699 38.2869 6.74699C38.1424 6.74699 38.0219 6.79518 37.9255 6.89157C37.8291 6.98795 37.7648 7.1004 37.7327 7.22892L36.6484 14.9398H32.311L33.9978 2.89157H37.8532L37.9496 4.91566C38.1584 4.27309 38.544 3.73494 39.1062 3.3012C39.6685 2.86747 40.295 2.6506 40.9857 2.6506C41.6444 2.6506 42.1825 2.8514 42.6002 3.25301C43.0339 3.65462 43.2749 4.16064 43.3231 4.77108C43.548 4.16064 43.9255 3.65462 44.4556 3.25301C45.0018 2.8514 45.6122 2.6506 46.2869 2.6506C46.6564 2.6506 46.9938 2.72289 47.299 2.86747C47.6203 3.01205 47.8853 3.20482 48.0942 3.44578C48.303 3.68675 48.4476 3.9759 48.5279 4.31325C48.6243 4.63454 48.6484 4.97992 48.6002 5.3494L47.2508 14.9398H42.9134L43.9978 7.22892C44.0299 7.1004 44.0058 6.98795 43.9255 6.89157C43.8452 6.79518 43.7327 6.74699 43.5881 6.74699C43.4436 6.74699 43.3231 6.79518 43.2267 6.89157C43.1303 6.98795 43.0661 7.1004 43.0339 7.22892L41.9496 14.9398H37.6122L38.6966 7.22892Z" fill="white"/>
<path d="M50.8988 15.1807C50.5293 15.1807 50.1839 15.1084 49.8626 14.9639C49.5574 14.8193 49.3004 14.6265 49.0915 14.3855C48.8827 14.1446 48.7301 13.8635 48.6337 13.5422C48.5373 13.2048 48.5132 12.8514 48.5614 12.4819L49.5735 5.3494C49.6217 4.97992 49.7421 4.63454 49.9349 4.31325C50.1277 3.9759 50.3606 3.68675 50.6337 3.44578C50.9068 3.20482 51.22 3.01205 51.5735 2.86747C51.9269 2.72289 52.2883 2.6506 52.6578 2.6506C53.2682 2.6506 53.7823 2.82731 54.2 3.18072C54.6337 3.53414 54.8988 3.99197 54.9951 4.55422L55.212 2.89157H59.5494L57.8626 14.9398H54.0072L53.9108 12.9157C53.702 13.5582 53.3164 14.0964 52.7542 14.5301C52.208 14.9639 51.5895 15.1807 50.8988 15.1807ZM53.5735 11.0843C53.718 11.0843 53.8385 11.0361 53.9349 10.9398C54.0474 10.8434 54.1116 10.7309 54.1277 10.6024L54.6096 7.22892C54.6417 7.1004 54.6176 6.98795 54.5373 6.89157C54.457 6.79518 54.3445 6.74699 54.2 6.74699C54.0554 6.74699 53.9349 6.79518 53.8385 6.89157C53.7421 6.98795 53.6779 7.1004 53.6457 7.22892L53.1638 10.6024C53.1478 10.7309 53.1719 10.8434 53.2361 10.9398C53.3164 11.0361 53.4289 11.0843 53.5735 11.0843Z" fill="white"/>
<path d="M64.2945 11.0843H65.0174L64.4872 14.9398C64.2945 14.988 64.0696 15.0281 63.8125 15.0602C63.5876 15.0924 63.3145 15.1165 62.9933 15.1325C62.672 15.1647 62.3025 15.1807 61.8848 15.1807C61.4993 15.1807 61.1378 15.1084 60.8005 14.9639C60.4631 14.8193 60.174 14.6265 59.933 14.3855C59.6921 14.1446 59.5073 13.8635 59.3788 13.5422C59.2664 13.2048 59.2342 12.8514 59.2824 12.4819L60.4631 4.09639H59.7402L59.8366 3.37349L64.6559 0H65.3788L64.9692 2.89157H66.174L66.0053 4.09639H64.8005L63.8848 10.6024C63.8688 10.7309 63.9009 10.8434 63.9812 10.9398C64.0615 11.0361 64.166 11.0843 64.2945 11.0843Z" fill="white"/>
<path d="M71.1988 10H75.5362L75.4157 10.8434C75.3193 11.502 75.1185 12.1044 74.8133 12.6506C74.5081 13.1807 74.1145 13.6386 73.6326 14.0241C73.1667 14.3936 72.6205 14.6827 71.994 14.8916C71.3836 15.0843 70.7169 15.1807 69.994 15.1807C69.2711 15.1807 68.6286 15.0843 68.0663 14.8916C67.5041 14.6827 67.0302 14.3936 66.6446 14.0241C66.2751 13.6386 66.0101 13.1807 65.8494 12.6506C65.7049 12.1044 65.6808 11.502 65.7771 10.8434L66.3073 6.98795C66.4037 6.32932 66.6045 5.73494 66.9097 5.20482C67.2149 4.65863 67.6085 4.2008 68.0904 3.83132C68.5723 3.44578 69.1185 3.15663 69.729 2.96386C70.3555 2.75502 71.0302 2.6506 71.7531 2.6506C72.4759 2.6506 73.1185 2.75502 73.6808 2.96386C74.243 3.15663 74.7089 3.44578 75.0784 3.83132C75.4478 4.2008 75.7049 4.65863 75.8494 5.20482C76.0101 5.73494 76.0422 6.32932 75.9458 6.98795L75.6085 9.37349H70.3073L70.1386 10.6024C70.1225 10.7309 70.1547 10.8434 70.235 10.9398C70.3153 11.0361 70.4197 11.0843 70.5482 11.0843C70.6768 11.0843 70.7972 11.0361 70.9097 10.9398C71.0221 10.8434 71.0864 10.7309 71.1024 10.6024L71.1988 10ZM71.4639 8.14458L71.5844 7.22892C71.6165 7.1004 71.5844 6.98795 71.488 6.89157C71.4077 6.79518 71.3033 6.74699 71.1747 6.74699C71.0462 6.74699 70.9258 6.79518 70.8133 6.89157C70.7169 6.98795 70.6527 7.1004 70.6205 7.22892L70.5 8.14458H71.4639Z" fill="white"/>
</svg>
