<svg width="40" height="40" viewBox="0 0 40 40" fill="none" xmlns="http://www.w3.org/2000/svg">
<rect width="40" height="40" rx="20" fill="#0666EB" fill-opacity="0.1"/>
<path d="M25 16.6666C26.3807 16.6666 27.5 15.5473 27.5 14.1666C27.5 12.7859 26.3807 11.6666 25 11.6666C23.6193 11.6666 22.5 12.7859 22.5 14.1666C22.5 15.5473 23.6193 16.6666 25 16.6666Z" stroke="#0666EB" stroke-width="2" stroke-linecap="round" stroke-linejoin="round"/>
<path d="M15 22.5C16.3807 22.5 17.5 21.3807 17.5 20C17.5 18.6193 16.3807 17.5 15 17.5C13.6193 17.5 12.5 18.6193 12.5 20C12.5 21.3807 13.6193 22.5 15 22.5Z" stroke="#0666EB" stroke-width="2" stroke-linecap="round" stroke-linejoin="round"/>
<path d="M25 28.3334C26.3807 28.3334 27.5 27.2141 27.5 25.8334C27.5 24.4527 26.3807 23.3334 25 23.3334C23.6193 23.3334 22.5 24.4527 22.5 25.8334C22.5 27.2141 23.6193 28.3334 25 28.3334Z" stroke="#0666EB" stroke-width="2" stroke-linecap="round" stroke-linejoin="round"/>
<path d="M17.1583 21.2583L22.85 24.575" stroke="#0666EB" stroke-width="2" stroke-linecap="round" stroke-linejoin="round"/>
<path d="M22.8417 15.425L17.1583 18.7417" stroke="#0666EB" stroke-width="2" stroke-linecap="round" stroke-linejoin="round"/>
</svg>
